<?xml version="1.0" encoding="UTF-8" standalone="no" ?>
<!DOCTYPE svg PUBLIC "-//W3C//DTD SVG 1.1//EN" "http://www.w3.org/Graphics/SVG/1.1/DTD/svg11.dtd">
<svg xmlns="http://www.w3.org/2000/svg" xmlns:xlink="http://www.w3.org/1999/xlink" version="1.1" width="200" height="120" viewBox="0 0 200 120" xml:space="preserve">
<desc>Created with Fabric.js 5.2.4</desc>
<defs>
</defs>
<g transform="matrix(Infinity NaN NaN Infinity 0 0)" id="2ccdad76-eae1-4937-814d-d1ff10b51b7d"  >
</g>
<g transform="matrix(1 0 0 1 100 60)" id="85bc4394-3496-433b-a3e3-8e007a2cbfe0"  >
<rect style="stroke: none; stroke-width: 1; stroke-dasharray: none; stroke-linecap: butt; stroke-dashoffset: 0; stroke-linejoin: miter; stroke-miterlimit: 4; fill: rgb(255,255,255); fill-rule: nonzero; opacity: 1; visibility: hidden;" vector-effect="non-scaling-stroke"  x="-100" y="-60" rx="0" ry="0" width="200" height="120" />
</g>
<g transform="matrix(0.27 0 0 0.27 72.8 60)"  >
<g style="" vector-effect="non-scaling-stroke"   >
		<g transform="matrix(1 0 0 1 0 0)"  >
<polygon style="stroke: none; stroke-width: 1; stroke-dasharray: none; stroke-linecap: butt; stroke-dashoffset: 0; stroke-linejoin: miter; stroke-miterlimit: 4; fill: rgb(18,56,132); fill-rule: nonzero; opacity: 1;" vector-effect="non-scaling-stroke"  points="23.41,10.29 20.59,13.12 0,-7.46 -20.59,13.12 -23.41,10.29 0,-13.12 " />
</g>
		<g transform="matrix(1 0 0 1 0 0)"  >
<path style="stroke: none; stroke-width: 1; stroke-dasharray: none; stroke-linecap: butt; stroke-dashoffset: 0; stroke-linejoin: miter; stroke-miterlimit: 4; fill: rgb(18,56,132); fill-rule: nonzero; opacity: 1;" vector-effect="non-scaling-stroke"  transform=" translate(-24.83, -24.83)" d="M 45.414 39.363 L 24.828 18.778 L 4.242 39.363 L 0 35.121 L 24.828 10.293000000000003 L 49.656 35.121 L 45.414 39.363 z M 24.828 15.95 L 45.414 36.535 L 46.828 35.120999999999995 L 24.828000000000003 13.120999999999995 L 2.828000000000003 35.120999999999995 L 4.242000000000003 36.535 L 24.828 15.95 z" stroke-linecap="round" />
</g>
</g>
</g>
</svg>